<svg height="512" viewBox="0 0 128 128" width="512" xmlns="http://www.w3.org/2000/svg"><g><path d="m88.869 24.336a1.749 1.749 0 0 0 -2.287-.947l-8.474 3.511a1.751 1.751 0 0 0 1.34 3.235l8.474-3.509a1.752 1.752 0 0 0 .947-2.29z"/><path d="m118.794 36.475a15.247 15.247 0 0 0 -10.762-26.01l-1.917-4.634a1.752 1.752 0 0 0 -2.287-.948l-11.083 4.589a1.751 1.751 0 0 0 -.947 2.286l1.053 2.542-56.551 23.413a1.751 1.751 0 0 0 -.947 2.287l.99 2.393-14.222 5.89a1.751 1.751 0 0 0 -.948 2.286l.858 2.075-16.2 6.709a1.749 1.749 0 0 0 -.948 2.286l4.79 11.57a1.75 1.75 0 0 0 2.286.948l16.2-6.7.858 2.074a1.751 1.751 0 0 0 .946.948 1.76 1.76 0 0 0 1.34 0l14.227-5.893.987 2.384a1.75 1.75 0 0 0 2.286.948l9.782-4.048a11.377 11.377 0 0 0 1.428 1.879l-20.631 50.988a4.813 4.813 0 0 0 -.342 1.773 4.75 4.75 0 0 0 9.152 1.776l20.068-49.631 20.069 49.635a4.749 4.749 0 0 0 8.8-3.566l-20.618-50.976a11.2 11.2 0 0 0 2.747-10.443l26.09-10.8 1.05 2.539a1.752 1.752 0 0 0 2.288.948l11.083-4.589a1.751 1.751 0 0 0 .947-2.286zm.059-15.246a11.729 11.729 0 0 1 -1.543 11.66l-7.788-18.823a11.69 11.69 0 0 1 9.331 7.163zm-106.615 49.025-3.452-8.337 14.582-6.039 3.45 8.342zm19.34-3.681-5.631-13.618c0-.011-.006-.023-.01-.035s-.013-.021-.018-.032l-.843-2.04 12.606-5.221 6.506 15.724zm44.522-8.573a7.835 7.835 0 1 1 -7.835-7.835 7.844 7.844 0 0 1 7.835 7.835zm-31.151 60.97a1.25 1.25 0 0 1 -2.409-.46 1.318 1.318 0 0 1 .092-.474l20.251-50.061a11.264 11.264 0 0 0 2.311.927zm48.82.229a1.253 1.253 0 0 1 -2.2-.225l-20.243-50.074a11.264 11.264 0 0 0 2.311-.927l20.252 50.063a1.234 1.234 0 0 1 -.12 1.164zm-15.864-67.122a11.314 11.314 0 0 0 -20.659 8.556l-8.168 3.381-8.831-21.342-.989-2.391 54.931-22.743 9.821 23.735zm31.059-7.985-1.035-2.5c0-.013-.007-.026-.012-.039s-.014-.024-.019-.036l-11.134-26.912c0-.008 0-.016-.007-.024s-.009-.014-.012-.022l-1.045-2.523 7.849-3.25 13.262 32.056z"/></g></svg>