<?xml version="1.0" standalone="no"?>
<!DOCTYPE svg PUBLIC "-//W3C//DTD SVG 20010904//EN"
 "http://www.w3.org/TR/2001/REC-SVG-20010904/DTD/svg10.dtd">
<svg version="1.0" xmlns="http://www.w3.org/2000/svg"
 width="1280.000000pt" height="500.000000pt" viewBox="0 0 1280.000000 500.000000"
 preserveAspectRatio="xMidYMid meet">

<g transform="translate(0.000000,500.000000) scale(0.100000,-0.100000)"
fill="#000000" stroke="none">
<path d="M4440 2520 l0 -750 150 0 150 0 -2 748 -3 747 -147 2 -148 2 0 -749z"/>
<path d="M5889 2998 c-3 -53 -4 -486 -1 -495 3 -8 22 -13 51 -13 l47 0 1 260
0 260 -49 0 c-31 0 -48 -4 -49 -12z"/>
<path d="M7180 2913 l0 -96 -24 22 c-52 49 -145 45 -200 -8 -81 -79 -72 -258
18 -325 42 -32 145 -30 180 3 26 24 26 24 26 3 0 -20 5 -22 50 -22 l50 0 0
260 0 260 -50 0 -50 0 0 -97z m-34 -136 c55 -48 41 -197 -20 -213 -70 -17
-126 30 -126 108 0 108 78 163 146 105z"/>
<path d="M9232 2750 l0 -260 49 0 c40 0 49 3 50 18 0 9 0 71 0 137 0 66 -1
175 -1 243 l0 122 -49 0 -49 0 0 -260z"/>
<path d="M9410 2750 l0 -260 53 0 52 0 -3 260 -3 260 -49 0 -50 0 0 -260z"/>
<path d="M3615 2874 c-11 -2 -45 -9 -75 -15 -164 -33 -287 -150 -306 -293 l-7
-46 146 0 146 0 11 40 c14 50 52 96 93 109 81 27 193 19 242 -16 43 -32 63
-109 40 -157 -23 -48 -83 -71 -238 -90 -241 -31 -315 -54 -388 -123 -59 -55
-82 -118 -82 -226 0 -130 62 -228 175 -280 139 -64 376 -38 508 57 29 21 50
31 51 23 1 -19 9 -61 14 -74 3 -10 43 -13 150 -13 80 0 145 3 145 8 0 4 -5 23
-12 42 -7 23 -13 174 -17 440 l-6 405 -26 45 c-43 72 -107 116 -214 146 -49
14 -309 28 -350 18z m298 -670 c-4 -142 -33 -201 -117 -240 -39 -18 -68 -24
-121 -24 -131 1 -192 52 -183 152 9 91 64 125 254 157 62 10 120 24 130 30 37
21 40 14 37 -75z"/>
<path d="M6177 2865 c-79 -20 -119 -70 -132 -161 -23 -172 154 -284 302 -191
60 38 78 76 78 167 0 62 -4 82 -24 113 -41 66 -132 95 -224 72z m118 -89 c44
-44 46 -147 4 -192 -27 -29 -87 -32 -118 -6 -52 41 -44 183 12 210 38 18 76
14 102 -12z"/>
<path d="M6655 2866 c-17 -7 -37 -21 -45 -31 -14 -17 -15 -16 -20 6 -5 21 -12
24 -53 24 l-47 0 0 -187 0 -188 50 0 50 0 0 120 c0 137 9 165 56 180 80 27 98
-5 97 -172 l-1 -128 49 0 49 0 0 150 c0 167 -8 199 -57 219 -44 18 -96 20
-128 7z"/>
<path d="M7480 2870 c-88 -25 -129 -77 -137 -170 -13 -141 76 -231 214 -217
110 11 165 76 166 192 1 90 -28 146 -95 181 -32 16 -114 25 -148 14z m94 -81
c61 -28 70 -174 13 -214 -33 -23 -89 -19 -115 8 -28 29 -38 102 -22 151 19 59
67 80 124 55z"/>
<path d="M7964 2868 c-17 -4 -39 -17 -49 -28 -23 -25 -35 -25 -35 0 0 14 -7
20 -22 20 -13 0 -33 3 -45 6 l-23 6 0 -191 0 -191 50 0 50 0 0 120 c0 156 15
190 85 190 14 0 32 -11 44 -26 19 -24 21 -40 21 -155 l0 -129 50 0 50 0 0 140
c0 153 -10 197 -52 224 -29 19 -83 25 -124 14z"/>
<path d="M8492 2863 c-87 -30 -139 -144 -111 -246 16 -59 42 -92 95 -117 37
-19 57 -22 106 -17 67 6 100 25 136 77 37 55 31 70 -29 70 -27 0 -48 -4 -45
-8 3 -5 -5 -20 -17 -35 -27 -34 -86 -40 -117 -12 -26 24 -43 86 -34 131 18 98
117 128 161 49 5 -7 28 -15 53 -16 43 -3 45 -2 42 21 -9 84 -137 139 -240 103z"/>
<path d="M8928 2871 c-87 -17 -143 -95 -141 -197 1 -87 33 -139 110 -178 64
-32 178 -12 225 41 65 72 63 216 -4 283 -47 48 -114 65 -190 51z m93 -81 c58
-31 67 -161 14 -213 -22 -23 -87 -22 -116 2 -19 16 -24 30 -27 89 -4 68 -3 73
26 102 32 31 68 38 103 20z"/>
<path d="M9707 2866 c-92 -25 -145 -108 -134 -212 7 -66 42 -126 88 -150 85
-44 208 -20 249 48 10 18 18 37 17 42 -4 18 -64 9 -94 -14 -33 -24 -87 -29
-120 -11 -19 10 -50 67 -42 76 3 2 65 5 139 7 l135 3 -3 35 c-7 92 -56 159
-130 180 -45 12 -45 12 -105 -4z m108 -91 c46 -45 35 -55 -60 -55 -54 0 -85 4
-85 11 0 6 13 24 29 40 38 37 82 39 116 4z"/>
<path d="M10078 2857 c-103 -53 -122 -237 -32 -320 51 -47 139 -47 195 0 l30
26 -5 -47 c-7 -60 -21 -85 -54 -97 -32 -12 -70 -4 -99 23 -14 13 -36 20 -65
21 -37 1 -43 -2 -40 -18 5 -34 37 -69 73 -82 58 -20 149 -16 199 10 74 38 80
59 80 292 l0 200 -45 0 c-40 0 -45 -2 -45 -22 0 -13 -4 -23 -10 -23 -5 0 -10
4 -10 10 0 17 -50 43 -90 46 -25 1 -54 -5 -82 -19z m130 -63 c64 -18 69 -184
7 -208 -32 -12 -75 -6 -94 13 -42 42 -39 146 6 181 27 21 43 24 81 14z"/>
<path d="M10546 2866 c-147 -54 -171 -272 -40 -356 85 -54 206 -33 254 44 12
21 19 40 16 44 -12 11 -81 2 -92 -13 -16 -22 -61 -35 -94 -28 -34 6 -70 45
-70 74 0 17 10 19 108 20 59 1 120 0 136 -1 l29 -2 -5 56 c-6 67 -44 130 -92
150 -54 23 -108 27 -150 12z m99 -72 c14 -6 45 -53 45 -69 0 -3 -38 -5 -85 -5
-47 0 -85 2 -85 5 0 2 5 15 11 29 17 37 71 56 114 40z"/>
<path d="M2012 2493 c1 -197 5 -388 9 -425 15 -122 54 -203 124 -256 65 -49
123 -65 250 -66 95 -1 117 2 159 22 63 29 148 94 166 127 22 42 30 29 30 -50
l0 -75 139 0 139 0 -1 540 0 540 -148 0 -148 0 0 -324 c-1 -337 -6 -392 -44
-461 -45 -82 -179 -119 -274 -76 -44 21 -85 78 -98 140 -4 18 -7 188 -7 377
l0 344 -148 0 -148 0 0 -357z"/>
<path d="M5098 2832 l-28 -3 0 -158 0 -158 165 0 165 -1 0 159 0 159 -72 1
c-40 0 -102 1 -138 2 -36 1 -77 1 -92 -1z"/>
<path d="M6368 2275 c-33 -19 -58 -63 -58 -105 0 -27 -3 -30 -30 -30 -27 0
-30 -3 -30 -30 0 -27 3 -30 30 -30 l30 0 0 -155 0 -155 50 0 50 0 0 155 0 155
35 0 c32 0 35 2 35 30 0 27 -3 30 -29 30 -35 0 -45 12 -37 46 5 20 13 24 42
24 35 0 35 1 32 38 -3 36 -4 37 -48 39 -26 2 -57 -4 -72 -12z"/>
<path d="M6784 2283 c-35 -7 -67 -50 -73 -96 -5 -36 -10 -42 -32 -45 -21 -2
-28 -10 -31 -33 -4 -27 -2 -29 29 -29 l33 0 0 -155 0 -155 50 0 50 0 0 155 0
155 35 0 c32 0 35 2 35 30 0 28 -3 30 -36 30 -34 0 -35 1 -32 33 3 28 7 33 38
37 32 5 35 8 35 40 0 34 -1 35 -40 36 -22 1 -50 0 -61 -3z"/>
<path d="M7715 2030 l-1 -260 48 0 c55 0 50 -14 52 145 1 128 15 155 80 155
26 0 48 -6 56 -14 7 -10 12 -62 13 -150 l2 -136 52 0 52 0 -3 148 c-2 81 -8
159 -14 174 -17 42 -70 63 -149 59 -12 -1 -35 -12 -51 -26 -17 -14 -32 -25
-34 -25 -2 0 -4 37 -5 83 -1 45 -2 88 -2 95 -1 8 -18 12 -48 12 l-48 0 0 -260z"/>
<path d="M8140 2250 l0 -40 49 0 c43 0 49 3 53 23 8 48 0 57 -53 57 l-49 0 0
-40z"/>
<path d="M5928 2121 c-54 -34 -75 -72 -83 -149 -6 -50 -3 -64 22 -112 21 -42
38 -60 72 -77 79 -41 190 -25 244 35 46 51 60 159 28 227 -35 76 -85 105 -180
105 -46 0 -66 -6 -103 -29z m151 -56 c49 -25 66 -115 35 -180 -27 -57 -105
-67 -143 -19 -42 53 -33 155 16 193 31 25 54 26 92 6z"/>
<path d="M6984 2130 c-39 -20 -64 -53 -64 -85 0 -11 12 -15 41 -15 33 0 47 6
69 30 50 53 139 30 123 -31 -7 -24 -29 -34 -103 -44 -30 -4 -69 -13 -87 -20
-34 -14 -63 -59 -63 -97 0 -33 36 -87 66 -98 42 -16 112 -11 154 10 34 17 40
18 40 5 0 -12 12 -15 55 -15 40 0 53 3 49 13 -2 7 -6 75 -7 152 -4 156 -11
179 -62 201 -52 21 -162 18 -211 -6z m151 -276 c-12 -19 -24 -24 -58 -24 -53
0 -69 11 -69 45 0 33 19 46 87 60 l50 10 3 -33 c2 -19 -4 -44 -13 -58z"/>
<path d="M7390 2139 c-57 -23 -84 -82 -61 -137 15 -36 35 -48 128 -73 85 -22
103 -33 103 -59 0 -26 -26 -42 -69 -44 -41 -1 -81 24 -81 51 0 9 -15 13 -50
13 -54 0 -55 -2 -40 -46 17 -47 72 -78 149 -82 86 -5 139 13 168 57 59 87 10
154 -131 183 -88 17 -113 70 -40 84 34 6 84 -15 84 -36 0 -6 23 -10 50 -10 28
0 50 3 50 6 0 25 -36 73 -66 87 -39 19 -153 22 -194 6z"/>
<path d="M8399 2127 c-65 -34 -91 -90 -87 -183 3 -59 8 -77 31 -108 83 -108
262 -101 326 14 36 64 34 164 -3 221 -52 77 -176 104 -267 56z m169 -83 c17
-20 22 -37 22 -82 0 -99 -45 -145 -116 -122 -56 19 -80 100 -53 179 22 63 102
77 147 25z"/>
<path d="M8783 2142 c-23 -3 -23 -4 -23 -188 l0 -184 50 0 50 0 0 118 c0 64 3
127 6 140 9 31 54 53 90 43 45 -12 54 -42 54 -178 l0 -123 50 0 50 0 0 140 c0
199 -21 240 -126 240 -38 0 -61 -6 -88 -25 -44 -30 -46 -30 -46 -6 0 20 -27
29 -67 23z"/>
<path d="M8140 1955 l0 -185 49 0 50 0 3 48 c2 26 2 109 0 185 l-3 137 -50 0
-49 0 0 -185z"/>
<path d="M5070 1930 l0 -160 165 0 165 0 0 160 0 160 -165 0 -165 0 0 -160z"/>
</g>
</svg>
