<!DOCTYPE svg PUBLIC "-//W3C//DTD SVG 20010904//EN" "http://www.w3.org/TR/2001/REC-SVG-20010904/DTD/svg10.dtd">
<svg version="1.0" xmlns="http://www.w3.org/2000/svg" width="1032px" height="994px" viewBox="0 0 10320 9940" preserveAspectRatio="xMidYMid meet">
<g id="layer101" fill="#b36343" stroke="none">
<path d="M0 4970 l0 -4970 5160 0 5160 0 0 4970 0 4970 -5160 0 -5160 0 0 -4970z"/>
</g>
<g id="layer102" fill="#f3d8b6" stroke="none">
<path d="M2325 6811 c16 -7 -108 -18 -227 -22 -10 0 -18 -4 -18 -8 0 -4 -19 -8 -42 -10 -24 -1 -59 -10 -78 -19 -33 -16 -35 -20 -38 -74 -3 -50 0 -59 21 -72 21 -14 341 -16 3078 -16 1680 0 3090 2 3134 5 43 3 83 9 87 13 14 14 12 90 -3 108 -8 9 -55 37 -106 61 l-91 43 -2869 -1 c-1577 0 -2859 -4 -2848 -8z"/>
<path d="M6946 6353 c-1 -1 -147 -3 -324 -4 -195 0 -324 -5 -328 -11 -3 -5 -12 -7 -20 -4 -7 3 -16 1 -19 -4 -4 -6 -16 -10 -28 -10 -14 0 -31 -13 -46 -35 -13 -19 -27 -35 -32 -35 -12 0 -11 -97 2 -161 6 -30 12 -61 13 -69 3 -23 36 -132 46 -155 5 -11 12 -36 14 -55 3 -19 10 -51 16 -70 5 -19 10 -49 10 -67 0 -17 5 -35 10 -38 6 -4 10 -12 9 -18 -4 -36 2 -81 10 -69 5 8 11 -19 15 -70 3 -46 9 -110 13 -143 l8 -60 6 50 c4 39 6 26 8 -55 1 -58 8 -173 14 -257 7 -86 9 -149 3 -146 -5 3 -6 0 -4 -8 7 -18 -16 -63 -61 -120 -39 -50 -38 -49 -129 -95 -34 -17 -58 -35 -54 -39 4 -4 0 -6 -8 -3 -8 3 -35 -1 -58 -8 -24 -7 -84 -18 -132 -25 -49 -7 -87 -16 -84 -21 3 -4 -30 -8 -73 -8 -43 -1 -98 -2 -123 -4 -58 -5 -212 -15 -320 -22 -143 -8 -1784 -12 -1965 -4 -166 7 -256 23 -294 54 -8 6 -17 10 -20 10 -13 -3 -70 43 -63 50 4 4 2 6 -4 4 -12 -3 -124 97 -124 112 0 5 -11 21 -25 36 -14 15 -25 35 -25 46 0 10 -7 21 -15 24 -8 4 -15 12 -15 20 0 8 -4 14 -10 14 -5 0 -10 6 -10 13 0 7 -13 37 -28 67 -15 30 -45 98 -66 150 -21 52 -44 110 -52 127 -8 18 -21 50 -30 70 -30 70 -55 112 -84 141 -16 16 -32 27 -35 24 -3 -3 -5 2 -5 10 0 11 -16 18 -58 24 -70 10 -69 10 -165 1 -79 -8 -146 -31 -198 -68 -16 -11 -27 -24 -24 -29 3 -4 -2 -11 -11 -14 -8 -3 -14 -14 -12 -24 2 -11 -2 -25 -8 -33 -15 -19 -33 -128 -38 -226 -3 -45 -7 -86 -9 -90 -3 -5 -7 -86 -8 -181 -2 -96 -7 -176 -11 -178 -4 -3 -7 -20 -7 -37 l1 -32 8 30 8 30 1 -32 c0 -17 -4 -33 -9 -35 -8 -2 -13 -197 -17 -595 -6 -538 -5 -594 10 -626 13 -26 16 -59 15 -129 l-2 -93 -3 78 c-2 42 -7 77 -11 77 -8 0 -4 -188 5 -210 8 -20 10 -29 11 -66 2 -37 66 -116 87 -107 8 3 15 1 15 -5 0 -13 90 -40 175 -52 89 -12 251 -13 274 -1 10 6 28 12 42 14 13 2 33 7 44 11 39 15 187 89 198 100 7 6 29 24 50 40 21 15 52 41 68 57 16 16 33 29 36 29 3 0 34 26 67 58 92 86 121 109 189 152 34 22 67 44 74 50 7 5 18 10 26 10 7 0 32 9 55 20 22 11 46 20 52 20 7 0 24 6 38 14 38 20 105 39 144 41 18 1 40 4 48 8 60 26 647 45 800 26 92 -12 262 -29 353 -36 37 -2 65 -9 61 -14 -3 -5 9 -10 25 -10 17 -1 34 -2 39 -3 4 -1 32 -6 62 -10 30 -5 81 -15 113 -23 32 -8 66 -12 74 -9 9 4 21 2 27 -3 7 -6 50 -17 97 -26 46 -9 124 -25 174 -36 49 -12 104 -21 122 -21 18 0 33 -3 33 -7 0 -4 21 -8 48 -9 26 -2 61 -7 77 -12 17 -5 57 -11 90 -14 33 -3 92 -12 130 -20 39 -9 94 -15 123 -16 29 0 51 -4 48 -9 -7 -10 108 -24 142 -17 12 3 22 1 22 -4 0 -4 19 -11 43 -15 23 -3 51 -9 62 -11 16 -4 17 -3 5 5 -13 10 -13 11 0 10 8 0 33 -6 55 -14 22 -8 59 -15 82 -15 23 0 64 -4 90 -10 118 -24 488 -39 523 -20 15 8 20 8 16 1 -5 -7 4 -11 24 -11 18 0 29 4 25 10 -4 6 6 10 24 10 16 0 33 5 36 10 3 6 19 10 35 10 16 0 62 13 103 30 42 16 87 30 101 30 14 0 29 6 33 13 4 8 28 27 53 43 57 37 67 44 90 69 75 79 103 117 137 184 21 42 41 78 45 81 9 7 48 126 48 149 0 11 5 21 11 23 7 2 13 20 14 38 2 50 34 269 45 305 5 17 11 66 15 110 3 44 8 103 11 130 3 28 10 106 15 175 4 69 10 145 13 170 2 25 5 83 6 130 1 47 6 112 11 145 9 67 15 269 25 860 l6 400 -22 28 c-12 15 -41 37 -63 49 -41 21 -51 22 -525 22 -266 1 -485 0 -486 -1z m628 -188 c14 -6 17 -5 12 3 -4 7 -2 12 3 12 6 0 11 -4 11 -8 0 -5 19 -14 41 -21 24 -7 60 -31 86 -57 25 -24 49 -44 54 -44 5 0 8 -3 8 -7 -1 -5 -1 -15 0 -23 1 -13 2 -13 11 0 7 11 10 3 11 -30 1 -38 2 -41 9 -20 16 49 -10 -591 -26 -649 -6 -19 -4 -22 7 -16 11 7 12 6 3 -6 -12 -14 -36 -174 -39 -264 -1 -27 -5 -57 -8 -65 -6 -18 -56 -464 -59 -535 -2 -27 -6 -52 -10 -56 -5 -3 -10 -36 -13 -75 -2 -38 -5 -69 -5 -69 -1 0 -3 -25 -6 -55 -2 -30 -11 -95 -19 -145 -24 -152 -26 -187 -12 -179 6 4 4 -2 -6 -13 -9 -11 -15 -22 -12 -24 5 -6 -14 -45 -60 -124 -35 -61 -120 -151 -195 -208 -30 -23 -56 -45 -58 -49 -2 -5 -12 -8 -22 -8 -11 0 -40 -12 -66 -26 -25 -14 -48 -23 -51 -21 -2 3 -19 1 -36 -4 -53 -15 -74 -17 -282 -26 -254 -10 -420 -7 -565 12 -63 9 -132 17 -153 20 -21 3 -43 7 -48 11 -5 3 -31 8 -57 10 -58 6 -95 12 -147 25 -52 13 -116 27 -185 38 -30 5 -68 14 -84 20 -16 7 -36 9 -43 7 -8 -3 -21 -2 -31 3 -15 8 -116 34 -183 46 -13 2 -57 12 -96 20 -40 9 -78 13 -84 9 -6 -3 -14 -1 -18 5 -4 6 -31 14 -59 18 -29 3 -52 9 -52 12 0 4 -19 8 -42 10 -23 1 -45 4 -49 7 -5 3 -36 7 -71 11 -35 3 -72 10 -83 16 -11 6 -42 12 -68 13 -28 0 -52 6 -57 14 -4 7 -15 10 -24 7 -9 -4 -53 1 -99 9 -45 9 -93 16 -107 16 -14 0 -29 2 -33 5 -11 6 -100 12 -247 16 -113 3 -357 -14 -455 -32 l-50 -9 57 1 c31 1 54 -2 51 -6 -3 -5 -42 -7 -86 -7 -45 1 -102 -3 -127 -9 -25 -7 -67 -16 -95 -22 -72 -13 -125 -31 -125 -41 0 -4 -6 -8 -14 -8 -7 0 -46 -19 -87 -41 -41 -23 -86 -48 -101 -56 -30 -15 -38 -29 -12 -19 9 3 12 2 9 -5 -4 -5 -14 -9 -23 -8 -29 2 -38 0 -58 -19 -10 -10 -40 -28 -66 -41 -27 -12 -48 -28 -48 -34 0 -5 -3 -8 -6 -4 -3 3 -11 1 -18 -4 -26 -23 -167 -119 -175 -119 -4 0 -16 -9 -26 -19 -9 -11 -41 -30 -71 -42 -29 -12 -51 -25 -49 -29 2 -4 -9 -7 -25 -8 -16 0 -38 -5 -49 -11 -11 -6 -58 -11 -105 -11 -77 0 -86 2 -103 23 -10 13 -23 22 -29 20 -18 -6 -94 79 -121 137 -35 73 -46 116 -44 170 1 33 -2 41 -9 30 -9 -14 -17 204 -14 405 0 39 -2 72 -6 75 -4 3 -11 165 -14 360 -4 195 -10 429 -15 519 -8 156 -6 259 5 309 6 28 71 102 91 102 8 0 21 7 29 15 34 33 148 6 205 -48 15 -14 30 -23 34 -19 4 4 5 0 3 -8 -3 -8 5 -28 17 -45 12 -16 39 -66 60 -110 20 -44 48 -94 61 -112 13 -17 25 -45 26 -62 1 -18 10 -39 20 -48 10 -9 18 -21 18 -28 0 -6 16 -37 35 -69 19 -32 35 -63 35 -68 0 -34 217 -268 249 -268 6 0 11 -4 11 -10 0 -5 7 -10 15 -10 8 0 15 -5 15 -11 0 -5 5 -7 10 -4 6 3 10 2 10 -3 0 -10 126 -52 215 -72 28 -6 136 -14 240 -18 136 -5 176 -9 140 -13 -27 -4 47 -6 165 -4 118 3 226 6 240 9 14 2 203 7 420 11 452 7 773 22 1060 51 77 7 224 31 306 50 38 8 90 18 117 21 26 3 50 10 53 14 3 5 18 9 35 9 16 0 29 3 29 8 0 4 22 13 49 19 48 11 161 60 171 73 3 4 17 10 32 13 15 4 33 13 40 20 7 7 29 23 48 37 50 33 109 99 127 140 10 24 15 63 14 128 -1 54 2 92 8 92 6 0 8 60 5 163 -3 89 -5 169 -5 177 -1 13 -7 55 -24 170 -36 245 -50 368 -58 510 -4 60 -1 83 15 116 20 44 40 58 103 74 48 11 1001 7 1029 -5z m-5677 -3062 c-3 -10 -5 -4 -5 12 0 17 2 24 5 18 2 -7 2 -21 0 -30z"/>
<path d="M7750 4990 c0 -7 3 -10 7 -7 3 4 3 10 0 14 -4 3 -7 0 -7 -7z"/>
<path d="M2165 6213 c-15 -14 -16 -44 -14 -270 2 -139 7 -262 11 -273 10 -27 54 -27 68 0 7 13 10 110 8 285 -2 146 -4 261 -6 255 -2 -6 -10 -4 -19 5 -19 19 -28 19 -48 -2z"/>
<path d="M8255 5300 c-3 -5 -3 -14 0 -20 3 -5 1 -10 -5 -10 -7 0 -10 -368 -8 -1282 3 -1398 1 -1338 58 -1346 32 -5 89 13 117 37 l23 19 0 1274 c0 700 0 1278 0 1285 0 6 -16 20 -36 32 -38 22 -137 30 -149 11z"/>
</g>
<g id="layer103" fill="#fbe6c5" stroke="none">
<path d="M2868 6813 c18 -2 45 -2 60 0 15 2 0 4 -33 4 -33 0 -45 -2 -27 -4z"/>
<path d="M2983 6813 c4 -3 10 -3 14 0 3 4 0 7 -7 7 -7 0 -10 -3 -7 -7z"/>
<path d="M2163 6793 c4 -3 10 -3 14 0 3 4 0 7 -7 7 -7 0 -10 -3 -7 -7z"/>
<path d="M2216 6790 l29 -6 -25 -7 c-35 -9 -70 -9 -70 2 0 4 -15 6 -32 4 -18 -3 -38 -5 -45 -6 -6 0 -9 -6 -6 -14 6 -15 -42 -19 -51 -4 -3 5 -15 7 -27 4 -13 -4 -16 -8 -10 -13 7 -4 3 -10 -11 -17 -20 -9 -23 -16 -20 -61 3 -37 8 -52 20 -55 11 -3 8 -5 -8 -6 -22 -1 -23 -3 -7 -12 23 -13 411 -12 415 1 2 6 13 10 23 10 11 0 18 -4 15 -9 -8 -12 94 -9 113 3 10 6 12 5 7 -2 -5 -9 6 -12 36 -12 31 0 39 3 28 10 -9 6 -10 10 -3 10 6 0 15 -4 18 -10 9 -14 52 -12 58 3 4 10 7 10 18 0 14 -14 53 -18 46 -5 -3 4 6 8 19 8 13 1 21 -2 18 -7 -3 -5 4 -9 16 -9 14 0 19 4 14 13 -6 9 -4 9 7 1 8 -6 56 -12 108 -13 75 -2 92 0 86 11 -6 10 -5 11 6 1 7 -7 20 -13 29 -13 12 0 13 2 1 9 -10 6 -3 9 22 8 22 -1 32 -4 24 -9 -7 -5 2 -8 23 -8 26 0 31 3 20 10 -13 8 -13 10 2 10 9 0 18 -6 21 -12 3 -10 9 -10 26 0 25 15 51 16 51 2 0 -5 15 -10 33 -10 24 0 28 3 17 10 -8 5 -12 10 -7 10 4 0 16 -6 27 -12 16 -10 24 -10 39 -1 15 10 21 10 24 0 4 -8 6 -8 6 2 1 10 4 11 14 3 13 -11 42 -11 53 1 11 11 26 8 19 -3 -4 -6 7 -10 25 -10 18 0 29 4 25 10 -3 6 -2 10 4 10 5 0 13 -4 16 -10 3 -5 17 -10 31 -10 18 0 23 4 18 13 -6 9 -4 9 7 2 17 -13 73 -20 66 -8 -3 4 6 9 19 9 13 1 21 -2 18 -7 -3 -5 4 -9 16 -9 14 0 19 4 14 13 -6 9 -4 9 7 1 8 -6 50 -11 94 -12 57 -2 76 0 65 8 -9 6 -10 10 -3 10 6 0 15 -4 18 -10 9 -15 27 -12 19 3 -6 10 -4 10 7 0 7 -7 20 -13 28 -13 14 0 14 2 1 11 -12 8 -9 9 10 4 58 -16 70 -17 70 -8 0 5 7 10 15 10 8 0 12 -4 9 -9 -3 -4 6 -8 20 -8 14 0 26 5 26 10 0 6 9 10 21 10 11 0 17 -4 14 -10 -4 -6 9 -10 32 -10 28 0 34 3 23 10 -9 6 -10 10 -3 10 6 0 14 -4 18 -9 7 -12 114 -11 121 1 3 4 15 8 27 7 20 -1 20 -2 -3 -9 -19 -6 -12 -8 30 -9 39 0 51 2 40 9 -9 6 -10 10 -3 10 6 0 15 -4 18 -10 3 -5 23 -10 43 -10 28 0 33 3 22 10 -9 6 -10 10 -3 10 6 0 15 -4 18 -10 8 -13 112 -13 120 0 3 5 11 7 18 5 42 -12 68 -15 62 -5 -3 5 1 10 10 10 9 0 13 -4 10 -10 -4 -6 15 -9 52 -9 56 2 56 2 18 9 l-40 7 43 2 c27 0 42 -3 42 -11 0 -9 3 -9 12 0 14 14 62 16 53 2 -4 -6 6 -10 22 -10 22 0 25 2 13 10 -13 8 -13 10 2 10 9 0 20 -5 23 -10 5 -8 120 -11 348 -10 188 1 385 1 437 1 61 0 97 4 101 11 5 8 46 12 122 13 63 0 113 -3 110 -7 -2 -5 -54 -8 -115 -8 -61 0 -109 -2 -107 -4 2 -2 159 -6 349 -8 190 -2 315 -2 278 -1 -38 2 -68 8 -68 13 0 5 -10 10 -22 12 -13 2 220 3 517 4 297 0 497 -3 445 -6 -52 -3 123 -7 390 -8 l485 -2 -1 62 c0 58 -2 63 -30 80 -34 21 -48 23 -38 6 5 -10 4 -10 -6 -1 -7 6 -19 9 -28 5 -11 -4 -14 -1 -9 10 8 22 -2 29 -24 18 -13 -7 -20 -6 -26 2 -6 10 -599 13 -2947 13 -1617 0 -2927 -2 -2910 -5z m5722 -177 c-86 -2 -230 -2 -320 0 -90 1 -19 3 157 3 176 0 249 -2 163 -3z m-5031 -9 c-3 -3 -12 -4 -19 -1 -8 3 -5 6 6 6 11 1 17 -2 13 -5z m60 -1 c-4 -3 -10 -3 -14 0 -3 4 0 7 7 7 7 0 10 -3 7 -7z m850 1 c-3 -3 -12 -4 -19 -1 -8 3 -5 6 6 6 11 1 17 -2 13 -5z m776 -1 c-13 -2 -35 -2 -50 0 -16 2 -5 4 22 4 28 0 40 -2 28 -4z m620 0 c-40 -2 -107 -2 -150 0 -43 1 -10 3 72 3 83 0 118 -2 78 -3z"/>
<path d="M8083 6793 c4 -3 10 -3 14 0 3 4 0 7 -7 7 -7 0 -10 -3 -7 -7z"/>
<path d="M3188 6593 c7 -3 16 -2 19 1 4 3 -2 6 -13 5 -11 0 -14 -3 -6 -6z"/>
<path d="M4863 6593 c4 -3 10 -3 14 0 3 4 0 7 -7 7 -7 0 -10 -3 -7 -7z"/>
<path d="M6573 6583 c9 -2 23 -2 30 0 6 3 -1 5 -18 5 -16 0 -22 -2 -12 -5z"/>
<path d="M6688 6583 c6 -2 18 -2 25 0 6 3 1 5 -13 5 -14 0 -19 -2 -12 -5z"/>
<path d="M6733 6583 c4 -3 10 -3 14 0 3 4 0 7 -7 7 -7 0 -10 -3 -7 -7z"/>
<path d="M6763 6583 c4 -3 10 -3 14 0 3 4 0 7 -7 7 -7 0 -10 -3 -7 -7z"/>
<path d="M7893 6353 c4 -3 10 -3 14 0 3 4 0 7 -7 7 -7 0 -10 -3 -7 -7z"/>
<path d="M6295 6340 c-3 -5 -16 -10 -28 -11 -21 0 -21 -1 -3 -8 19 -7 18 -8 -4 -14 -13 -3 -27 -2 -30 3 -3 5 -12 5 -19 1 -7 -5 -11 -13 -7 -19 3 -6 1 -14 -5 -18 -8 -5 -9 -3 -4 6 5 8 3 11 -6 8 -8 -3 -15 -16 -16 -29 -6 -69 -5 -167 1 -177 4 -7 1 -12 -6 -12 -10 0 -10 -2 0 -8 6 -5 19 -33 26 -63 8 -30 18 -63 22 -73 5 -14 4 -17 -4 -12 -8 5 -12 -1 -12 -18 0 -17 4 -24 14 -20 10 4 13 -4 11 -30 -3 -27 0 -33 12 -29 12 5 14 -3 13 -43 -4 -73 -1 -92 9 -76 6 10 10 6 14 -15 3 -15 2 -32 -2 -36 -5 -4 -6 -19 -3 -33 3 -19 7 -22 13 -12 10 14 12 -8 9 -76 -3 -71 11 -156 26 -156 15 0 16 -9 15 -123 -1 -58 2 -77 11 -75 13 3 13 -5 2 -83 -4 -26 -1 -41 11 -53 24 -24 15 -146 -14 -204 -12 -23 -21 -46 -21 -52 0 -6 -14 -23 -30 -37 -17 -13 -28 -29 -25 -34 4 -5 -2 -17 -12 -28 -22 -22 -69 -48 -59 -32 10 16 -10 13 -28 -4 -8 -8 -22 -15 -30 -15 -9 0 -16 -6 -16 -12 -1 -20 -70 -51 -85 -38 -7 6 -25 8 -40 4 -20 -5 -23 -9 -13 -15 10 -7 9 -9 -4 -9 -10 0 -18 5 -18 10 0 7 -6 7 -19 0 -11 -5 -41 -11 -68 -11 -33 -2 -39 -3 -19 -6 59 -9 4 -20 -82 -16 -57 2 -82 0 -73 -6 12 -8 9 -11 -14 -17 -19 -5 -30 -3 -33 4 -2 7 -16 12 -30 11 l-27 -1 25 -8 c24 -8 24 -8 -7 -9 -17 -1 -35 4 -39 10 -8 14 -85 5 -114 -13 -15 -10 -22 -10 -32 0 -6 6 -32 11 -58 10 -43 -1 -43 -2 -7 -5 20 -2 37 -8 37 -14 0 -13 -244 -11 -274 2 -14 7 -32 9 -40 6 -9 -4 -20 -7 -24 -8 -4 -1 -17 -5 -29 -10 -13 -5 -23 -5 -23 0 0 4 -354 8 -787 9 -434 0 -774 -3 -758 -8 18 -5 -3 -6 -55 -3 -47 3 -124 5 -172 3 -49 -1 -88 2 -88 7 0 4 -12 9 -26 10 -14 0 -31 6 -38 13 -8 8 -4 9 18 0 24 -9 27 -8 18 3 -7 8 -31 19 -54 26 -24 7 -50 20 -60 28 -11 10 -18 11 -23 3 -9 -15 -25 -2 -18 15 4 11 -2 15 -23 15 -16 0 -24 4 -18 8 7 4 -1 19 -24 42 -21 20 -25 23 -11 7 l24 -29 -25 12 c-25 11 -97 107 -93 122 2 4 -1 8 -5 8 -4 0 -9 12 -10 27 -2 32 -17 50 -26 34 -4 -6 -2 -11 3 -11 6 0 11 -5 11 -11 0 -8 -5 -7 -16 2 -10 8 -13 21 -9 38 6 22 5 23 -11 10 -10 -8 -15 -9 -11 -2 4 6 3 13 -2 15 -14 4 -43 78 -32 78 5 0 7 10 3 22 -5 21 -6 21 -13 2 -8 -20 -13 -7 -10 31 1 11 -5 29 -14 40 -15 19 -16 19 -4 -5 12 -25 12 -25 -9 -6 -22 19 -44 99 -34 124 3 10 1 13 -6 8 -15 -9 -35 30 -27 54 3 11 1 28 -5 37 -10 16 -10 15 -5 -4 4 -13 2 -23 -3 -23 -11 0 -25 54 -23 90 1 22 0 22 -7 6 -8 -19 -9 -19 -16 -1 -4 11 -2 22 6 27 10 6 10 8 -1 8 -17 0 -90 79 -91 97 0 7 -6 10 -14 7 -8 -3 -23 -1 -34 5 -10 5 -39 11 -64 13 -26 2 -44 6 -42 10 10 16 -73 5 -105 -14 -24 -13 -46 -18 -70 -14 -20 2 -28 2 -17 -1 17 -4 16 -6 -5 -18 -13 -8 -39 -21 -57 -29 -18 -9 -31 -20 -28 -25 3 -5 -3 -20 -14 -33 -12 -16 -17 -35 -15 -51 3 -14 0 -29 -6 -33 -8 -5 -10 1 -7 20 3 14 1 26 -5 26 -6 0 -8 -29 -4 -77 3 -43 2 -100 -3 -128 l-7 -50 -3 55 -4 55 -3 -48 c-3 -28 1 -55 8 -63 8 -10 9 -14 0 -14 -17 0 -31 -43 -17 -52 8 -6 8 -8 0 -8 -7 0 -12 -15 -12 -35 0 -19 4 -35 9 -35 5 0 9 -39 8 -87 0 -59 -3 -81 -9 -68 -6 13 -9 -12 -10 -75 0 -52 -1 -104 -1 -115 0 -21 -2 -399 -2 -447 0 -31 -13 -38 -20 -10 -3 9 -5 -155 -6 -365 0 -211 1 -383 4 -383 3 0 10 10 15 23 5 14 9 -44 9 -163 0 -237 -1 -222 11 -215 5 3 10 1 10 -4 0 -6 -4 -11 -9 -11 -5 0 -3 -14 5 -30 17 -33 27 -41 17 -12 -6 15 -5 16 13 3 10 -8 31 -26 45 -38 14 -13 30 -23 35 -22 21 4 28 -2 14 -11 -11 -7 -3 -9 25 -4 22 3 51 1 65 -5 l25 -10 -30 -2 -30 -1 30 -7 c17 -4 32 -3 33 2 2 4 10 3 18 -4 10 -8 14 -8 14 0 0 13 222 16 248 2 11 -5 39 -1 77 10 35 11 46 17 25 14 l-35 -5 30 18 c22 14 34 16 46 9 12 -8 21 -6 32 5 9 9 13 19 9 24 -4 5 0 3 10 -4 12 -10 18 -10 24 -1 5 8 3 9 -6 4 -9 -5 -11 -4 -6 4 4 6 11 9 16 6 4 -3 19 -1 32 4 12 6 17 10 11 10 -7 1 -13 6 -13 12 0 5 4 7 10 4 6 -3 10 0 10 8 0 8 7 18 16 21 9 4 13 2 8 -5 -4 -7 1 -10 12 -7 10 2 20 12 22 23 4 19 26 38 47 40 22 2 45 18 45 31 0 8 5 14 11 14 5 0 8 4 5 9 -3 4 4 8 16 7 13 -1 22 6 24 18 3 22 54 77 65 71 14 -9 38 7 32 21 -3 9 5 19 24 27 16 6 28 18 26 25 -3 6 1 12 9 13 7 1 22 2 33 3 13 0 20 8 20 21 0 14 7 20 22 19 13 0 19 4 16 13 -3 7 -1 13 5 13 6 0 12 -5 14 -12 3 -8 9 -8 24 0 10 6 13 12 6 12 -7 0 -11 4 -8 9 3 5 14 7 24 5 9 -3 33 2 52 10 19 8 29 15 23 16 -7 0 -13 5 -13 11 0 7 15 9 43 5 24 -3 32 -2 18 2 l-24 7 26 12 c18 8 28 9 33 2 4 -6 14 -2 26 11 13 14 24 18 31 12 7 -5 28 -7 47 -4 32 5 33 6 10 12 -14 3 -20 9 -14 12 6 4 23 0 38 -8 33 -16 50 -18 41 -4 -3 6 4 10 17 11 23 1 23 1 -2 9 l-25 7 27 8 c15 4 73 4 130 1 58 -3 97 -2 89 3 -27 17 25 22 63 6 10 -4 21 -4 25 1 9 13 31 16 31 4 0 -13 63 -13 77 1 8 8 13 7 18 -2 5 -7 4 -10 -3 -5 -6 3 -13 2 -17 -4 -3 -5 3 -10 14 -10 12 0 21 5 21 11 0 5 4 8 9 5 5 -4 11 0 14 6 3 10 8 9 22 -2 14 -11 19 -12 22 -3 4 10 10 10 26 1 16 -8 22 -8 25 0 2 8 9 9 22 2 17 -9 48 -8 159 4 19 2 44 1 55 -2 20 -6 19 -6 -4 -13 -14 -3 28 -6 93 -5 93 1 119 -2 127 -14 7 -11 26 -14 75 -12 47 1 64 -2 59 -10 -5 -8 10 -10 52 -6 63 5 87 2 79 -12 -3 -5 4 -11 15 -14 11 -3 30 -9 41 -12 14 -4 19 -2 15 5 -5 7 2 11 19 11 14 0 24 -4 21 -9 -8 -13 24 -23 38 -13 6 5 27 7 46 5 19 -3 43 -5 53 -6 9 -1 17 -7 17 -15 0 -9 7 -11 19 -7 28 9 77 -5 59 -17 -8 -5 9 -8 47 -6 41 2 59 -1 58 -8 -3 -17 46 -27 62 -14 10 8 19 9 32 1 10 -6 14 -11 8 -11 -5 -1 -1 -5 10 -9 11 -4 34 -3 52 2 24 8 37 7 45 -1 9 -9 6 -12 -12 -13 -14 -1 -3 -5 25 -10 32 -5 54 -4 62 3 10 8 13 6 14 -8 0 -11 3 -14 6 -6 2 6 14 12 24 12 12 0 17 -4 13 -11 -4 -7 9 -9 45 -4 56 7 92 0 88 -17 -1 -6 10 -12 24 -13 14 -1 32 -5 39 -10 9 -5 11 -4 6 3 -5 8 3 12 23 12 22 0 31 -5 31 -16 0 -14 10 -15 73 -9 51 4 68 3 57 -4 -12 -9 -9 -11 15 -11 17 0 37 -6 43 -12 10 -10 14 -10 20 -1 5 8 21 10 47 6 31 -5 35 -8 20 -14 -11 -4 17 -5 61 -2 62 4 87 2 105 -10 28 -18 94 -33 86 -20 -3 5 9 10 28 11 18 2 36 -2 40 -8 4 -6 -7 -11 -27 -11 -18 -1 -4 -5 32 -9 37 -5 69 -4 75 1 12 12 86 11 105 -1 13 -9 13 -10 0 -11 -8 0 16 -7 55 -15 39 -8 72 -10 75 -5 3 5 56 11 118 12 88 2 116 -1 122 -11 7 -11 14 -12 35 -2 15 7 24 8 20 2 -4 -6 7 -10 27 -9 27 0 30 2 13 9 -17 7 -16 9 10 10 25 1 26 3 11 9 -33 13 -1 22 56 16 29 -3 47 -2 40 1 -6 3 -10 10 -6 15 8 14 44 11 45 -3 0 -7 4 -3 9 9 7 18 17 22 47 22 45 -2 122 11 128 20 2 4 -12 5 -31 3 -44 -5 -44 10 1 24 24 8 37 8 45 0 8 -8 12 -4 17 12 3 14 11 21 19 18 8 -3 13 0 11 6 -1 6 4 13 12 16 10 3 11 0 5 -9 -7 -12 -5 -12 9 0 16 13 16 14 1 26 -10 6 -14 17 -10 23 10 16 36 15 36 0 0 -7 7 -2 16 10 8 12 19 20 24 17 5 -3 21 7 37 21 15 15 23 24 16 20 -16 -9 4 51 20 61 6 3 7 1 3 -5 -4 -7 -3 -12 1 -12 5 0 17 15 28 33 16 27 16 30 2 18 -10 -8 -17 -9 -17 -3 0 12 19 26 35 27 6 0 9 13 8 28 -1 17 3 27 12 27 9 0 13 10 12 28 -2 20 2 26 14 24 9 -1 19 4 23 13 3 8 1 15 -4 15 -6 0 -10 7 -10 16 0 8 4 13 9 10 9 -6 31 36 31 61 0 9 8 22 18 29 16 12 16 12 -3 11 -16 -2 -19 3 -17 23 1 14 5 32 8 40 4 13 6 13 14 0 8 -12 10 -11 10 7 0 12 3 28 6 37 4 11 0 16 -12 17 -11 0 -14 3 -8 5 6 3 9 16 6 29 -2 14 -1 32 2 42 6 15 8 15 16 3 7 -10 8 7 4 48 -3 41 -1 68 6 77 7 8 9 19 5 25 -4 6 -1 18 6 26 15 18 20 54 10 69 -4 6 -6 16 -5 23 1 6 2 21 3 33 0 11 6 17 11 14 7 -4 8 32 4 113 -4 66 -3 132 1 148 l9 29 7 -35 c7 -32 7 -30 6 15 0 28 5 60 11 72 9 17 9 22 -3 27 -8 3 -15 11 -14 18 0 10 2 10 6 1 9 -23 19 -14 18 16 0 16 -4 29 -10 28 -16 -3 -9 134 7 144 10 7 10 9 1 9 -17 0 -16 18 1 35 11 11 11 25 4 67 -14 74 -4 318 14 329 9 6 14 50 16 166 2 87 5 184 6 216 2 31 -1 57 -6 57 -4 0 -8 8 -8 18 0 14 2 15 10 2 7 -10 10 10 10 67 0 45 -4 83 -10 85 -5 2 -10 68 -11 156 0 83 -5 152 -10 152 -5 0 -9 6 -9 14 0 8 -6 17 -12 19 -10 4 -10 6 0 6 7 1 11 5 7 11 -3 5 -12 7 -21 3 -8 -3 -23 4 -34 17 -17 20 -20 21 -20 5 0 -15 -6 -17 -37 -11 -21 3 -44 6 -51 6 -7 0 -10 5 -7 10 3 6 1 10 -4 10 -6 0 -11 -5 -11 -12 0 -9 -3 -9 -12 0 -16 16 -28 15 -28 -3 0 -8 -7 -15 -16 -15 -11 0 -14 5 -10 16 5 14 4 15 -9 4 -9 -7 -15 -8 -15 -2 0 6 -52 11 -139 11 -116 2 -139 -1 -144 -14 -7 -16 -83 -22 -89 -7 -1 5 -16 12 -33 15 -16 3 -24 4 -17 1 6 -3 12 -9 12 -12 0 -4 -226 -7 -503 -7 -396 0 -501 3 -499 13 3 15 -4 16 -13 2z m1149 -150 c5 -5 24 -10 41 -10 16 0 45 -4 63 -9 17 -5 32 -6 32 -2 0 4 16 8 35 9 34 1 48 -12 23 -20 -7 -3 -2 -7 10 -10 12 -4 20 -2 16 3 -3 5 2 9 10 9 9 0 16 -8 16 -19 0 -24 20 -38 30 -21 6 9 11 8 21 -5 8 -9 21 -24 30 -33 37 -40 61 -96 56 -129 -3 -19 -1 -33 4 -33 6 0 8 -3 6 -8 -3 -4 -8 -51 -11 -105 -4 -73 -2 -97 7 -97 8 0 7 -3 -2 -9 -12 -8 -13 -21 -4 -78 7 -45 7 -72 0 -80 -6 -9 -6 -17 2 -26 6 -8 9 -16 6 -18 -2 -3 -5 -35 -6 -72 -2 -62 -11 -84 -22 -54 -3 6 -6 0 -6 -15 -1 -15 4 -30 10 -33 7 -5 4 -14 -7 -27 -11 -11 -14 -22 -9 -26 14 -10 18 -40 9 -71 l-7 -26 -8 25 c-5 14 -6 -19 -3 -77 6 -103 0 -138 -18 -112 -7 10 -8 8 -3 -8 3 -12 1 -24 -5 -28 -14 -9 -13 -55 3 -55 9 0 9 -2 0 -8 -7 -4 -14 -21 -17 -37 -2 -17 -1 -22 1 -12 7 27 21 20 15 -8 -2 -14 -8 -25 -13 -25 -5 0 -6 -31 -3 -69 4 -38 3 -87 -1 -108 -8 -36 -8 -37 -16 -13 -6 17 -7 12 -3 -17 3 -25 2 -43 -4 -43 -14 0 -22 -53 -10 -68 8 -9 8 -19 -1 -35 -6 -12 -10 -46 -8 -77 3 -30 1 -75 -3 -100 l-7 -45 -3 40 c-3 41 -5 31 -23 -112 -2 -18 1 -34 7 -37 8 -3 7 -7 -2 -13 -15 -12 -25 -110 -11 -119 11 -7 3 -86 -13 -124 -6 -14 -15 -36 -21 -50 -5 -14 -13 -33 -18 -42 -5 -10 -5 -20 1 -23 15 -9 12 -28 -3 -22 -9 3 -26 -15 -46 -50 -24 -43 -27 -54 -14 -49 23 9 10 -4 -19 -18 -12 -6 -23 -18 -26 -26 -3 -9 2 -7 12 5 17 20 17 20 6 -3 -6 -12 -16 -21 -23 -20 -7 2 -33 -18 -59 -43 -26 -26 -49 -45 -51 -42 -3 2 -8 -1 -13 -8 -4 -8 -3 -10 4 -5 17 11 15 -9 -3 -24 -11 -9 -15 -9 -15 -1 0 9 -5 9 -20 1 -11 -6 -20 -17 -20 -25 0 -9 -10 -15 -25 -15 -14 0 -24 -5 -23 -11 2 -6 -3 -14 -11 -17 -10 -3 -12 0 -7 14 6 16 5 17 -6 6 -7 -7 -13 -18 -13 -25 0 -7 -12 -11 -30 -9 -24 2 -27 0 -15 -8 11 -9 4 -10 -30 -6 -25 3 -54 0 -65 -5 -19 -9 -19 -9 1 -5 12 2 28 -1 35 -6 11 -8 10 -9 -3 -4 -10 3 -18 1 -18 -3 0 -14 -169 -26 -182 -13 -7 7 -17 7 -33 0 -16 -7 -29 -7 -44 1 -12 7 -26 9 -31 6 -6 -3 -10 0 -11 7 0 7 -2 9 -5 3 -2 -6 -61 -10 -148 -10 -154 0 -180 -6 -63 -16 71 -6 70 -6 -30 -7 -67 -1 -104 2 -109 9 -5 8 1 10 19 7 15 -3 24 -1 21 3 -3 5 -34 9 -70 9 -36 0 -63 -4 -60 -8 7 -12 -106 -2 -121 10 -7 5 -26 7 -43 3 -23 -5 -30 -3 -30 9 0 10 -9 16 -22 16 -19 0 -20 -2 -8 -11 16 -11 17 -11 -85 6 -22 3 -55 8 -73 11 -18 3 -30 9 -27 14 8 13 -32 22 -52 12 -10 -5 -27 -6 -38 -1 -11 4 -15 8 -10 9 13 1 -25 30 -39 30 -6 0 -4 -4 4 -10 12 -8 12 -10 -2 -15 -23 -9 -63 -2 -61 11 1 6 -10 10 -25 8 -15 -2 -19 -1 -9 2 22 7 12 24 -14 24 -11 0 -17 -4 -14 -10 9 -14 -29 -12 -43 2 -7 7 -30 11 -52 9 -24 -1 -40 2 -40 8 0 6 8 11 18 12 11 0 12 2 4 6 -7 3 -19 -1 -27 -7 -10 -8 -15 -9 -15 -2 0 7 -13 9 -35 5 -30 -5 -34 -3 -29 11 4 12 1 16 -14 16 -12 0 -24 -4 -27 -10 -6 -10 -65 -2 -80 11 -5 5 1 9 15 10 18 1 14 4 -14 10 -26 6 -43 6 -52 -2 -8 -6 -22 -7 -36 -3 -22 8 -22 8 7 15 18 5 3 6 -36 3 -61 -5 -68 -3 -83 17 -11 16 -19 19 -28 12 -7 -5 -20 -9 -28 -8 -8 1 -25 3 -37 3 -15 1 -23 8 -23 20 0 12 -9 18 -27 20 -19 1 -24 -1 -15 -7 11 -7 11 -9 -2 -14 -19 -7 -67 9 -77 25 -9 15 -37 19 -45 7 -3 -5 -22 -9 -42 -9 -24 0 -32 3 -24 9 10 6 7 12 -12 24 -14 10 -31 17 -38 16 -7 0 -2 -5 12 -11 l25 -10 -27 -8 c-14 -4 -41 -5 -60 -1 -31 7 -32 8 -13 19 19 11 19 11 -2 12 -13 0 -23 5 -23 10 0 17 -25 11 -43 -10 -14 -17 -21 -19 -38 -9 -11 6 -18 13 -15 16 3 3 12 0 20 -6 8 -7 17 -8 20 -3 3 5 -12 14 -34 20 -31 8 -40 7 -40 -3 0 -7 -8 -12 -17 -10 -10 2 -29 4 -42 4 -17 1 -22 5 -17 17 5 14 0 16 -41 11 -27 -3 -40 -3 -30 -1 30 9 10 20 -27 16 -20 -2 -34 -7 -32 -11 4 -6 -108 -7 -129 -1 -5 2 8 6 30 9 l40 7 -40 4 c-22 3 -107 3 -190 0 -98 -4 -127 -7 -85 -10 l65 -3 -65 -6 c-36 -3 -67 -3 -68 2 -2 4 -24 7 -48 7 -32 0 -44 -4 -44 -15 0 -8 -5 -15 -11 -15 -5 0 -7 5 -4 10 4 6 -5 10 -22 9 -17 -1 -21 -3 -10 -6 29 -8 19 -23 -15 -24 -48 -1 -80 -5 -111 -14 -23 -6 -26 -5 -20 11 5 13 3 15 -7 9 -8 -5 -30 -12 -50 -16 l-35 -7 40 -2 40 -2 -35 -9 c-19 -5 -55 -7 -80 -4 -25 2 -39 2 -32 -1 23 -11 12 -24 -20 -23 -28 0 -30 2 -13 9 11 5 15 9 9 9 -20 2 -75 -25 -67 -32 3 -4 -11 -7 -33 -7 -29 0 -35 -3 -24 -10 12 -8 9 -10 -13 -10 -19 0 -26 -4 -21 -12 5 -7 2 -9 -7 -6 -8 3 -30 -3 -49 -13 -19 -11 -28 -19 -20 -19 13 0 13 -2 1 -9 -8 -5 -19 -7 -25 -5 -6 2 -22 -6 -36 -17 -14 -11 -19 -18 -12 -14 6 3 12 2 12 -2 0 -5 -14 -14 -31 -20 -26 -10 -29 -10 -18 3 10 12 9 13 -5 8 -15 -6 -20 -17 -17 -36 0 -5 -8 -8 -19 -8 -27 0 -80 -27 -80 -41 0 -6 -5 -7 -10 -4 -5 3 -10 -1 -10 -9 0 -19 -28 -35 -52 -28 -14 3 -17 0 -12 -13 5 -11 2 -16 -7 -15 -8 1 -21 2 -29 1 -13 -1 -13 -2 0 -11 12 -8 10 -10 -8 -10 -15 0 -21 -4 -16 -12 5 -7 2 -9 -8 -5 -10 3 -15 0 -14 -10 0 -9 -5 -18 -13 -21 -10 -3 -12 0 -7 13 5 15 4 16 -9 5 -8 -7 -12 -16 -9 -21 3 -5 -2 -6 -10 -3 -9 3 -16 1 -16 -6 0 -19 -29 -42 -45 -36 -8 3 -21 -1 -29 -9 -8 -8 -24 -15 -36 -15 -16 0 -20 -4 -16 -15 3 -9 0 -15 -8 -15 -8 0 -16 -5 -18 -12 -3 -9 -34 -11 -107 -10 -69 2 -101 -1 -96 -8 4 -6 -3 -10 -17 -10 -18 0 -20 2 -8 10 12 8 11 10 -7 10 -12 0 -25 5 -28 10 -3 6 -11 10 -16 10 -6 0 -7 -5 -3 -12 4 -6 3 -8 -4 -5 -5 4 -8 16 -5 27 4 15 1 19 -9 15 -30 -12 -116 44 -103 66 4 5 -1 9 -11 9 -12 0 -15 6 -12 25 3 13 2 22 -3 20 -4 -3 -10 -1 -14 5 -3 5 -1 10 4 10 6 0 11 4 11 10 0 5 -6 7 -14 4 -8 -3 -19 3 -25 15 -16 28 -13 39 4 17 13 -17 14 -15 8 20 -3 22 -9 46 -14 55 -5 9 -7 31 -5 50 2 19 1 25 -3 14 -3 -11 -8 21 -12 70 l-5 90 -4 -95 c-4 -80 -5 -67 -10 80 -5 190 1 263 11 110 4 -72 5 -54 5 72 -1 92 -4 159 -8 150 -4 -9 -7 19 -8 63 -1 55 -4 74 -10 60 -6 -14 -9 -1 -9 45 -1 36 -4 170 -8 299 -4 181 -3 235 7 241 9 6 10 24 2 81 l-10 74 1 -73 c1 -39 -1 -72 -4 -72 -5 0 -17 255 -19 421 0 14 9 36 20 49 14 16 17 27 10 34 -15 15 -13 30 3 19 8 -7 20 0 40 24 17 18 23 33 16 33 -7 0 -3 10 11 25 16 17 27 22 34 15 5 -5 17 -10 26 -9 10 0 11 2 3 6 -45 18 37 32 95 16 18 -4 20 -8 10 -14 -8 -6 -1 -8 22 -7 25 2 34 -1 32 -11 -2 -8 3 -11 12 -8 9 4 18 2 21 -3 4 -6 1 -10 -5 -10 -18 0 0 -20 27 -31 16 -6 23 -15 19 -24 -3 -8 -1 -17 4 -20 6 -4 10 -1 10 4 0 20 17 11 28 -14 17 -37 15 -41 -9 -19 -20 17 -19 16 2 -17 13 -20 27 -32 30 -27 4 6 9 5 14 -2 4 -7 3 -15 -3 -19 -7 -4 -8 -12 -2 -21 9 -13 10 -13 10 0 0 20 23 -13 44 -64 14 -33 14 -37 1 -26 -23 19 -18 -2 8 -30 12 -14 19 -21 15 -16 -5 6 -8 15 -8 20 0 6 7 3 14 -7 8 -10 12 -33 10 -50 -2 -18 -1 -26 2 -19 10 23 43 -30 37 -61 -4 -21 -2 -26 9 -22 20 8 44 -45 26 -57 -10 -6 -7 -10 10 -14 12 -4 22 -11 22 -16 0 -5 -5 -6 -12 -2 -7 4 -8 3 -4 -4 4 -6 13 -9 20 -6 9 3 15 -5 18 -25 4 -26 2 -29 -11 -18 -9 6 -4 -2 9 -19 14 -17 28 -29 33 -27 4 2 7 -4 7 -14 0 -11 19 -40 43 -66 33 -37 47 -46 62 -41 14 6 17 4 12 -9 -4 -11 3 -20 24 -29 16 -7 29 -16 29 -20 0 -4 10 -8 21 -10 12 -2 27 -12 33 -23 14 -25 35 -39 61 -41 47 -3 51 -4 37 -13 -11 -7 -11 -9 2 -14 9 -4 16 -2 16 3 0 13 37 13 44 1 4 -5 0 -12 -6 -15 -7 -3 11 -2 41 1 48 5 56 3 71 -17 16 -21 25 -22 166 -27 82 -2 235 0 339 5 153 6 193 6 206 -5 9 -7 27 -11 40 -9 13 3 56 5 94 6 46 1 63 4 50 9 -15 6 -6 10 35 13 91 8 289 8 294 0 6 -10 48 -8 64 2 7 4 12 3 12 -3 0 -7 57 -10 160 -10 88 0 160 3 160 7 0 4 24 6 52 5 l53 -1 -45 7 c-77 11 -16 18 145 16 83 -1 159 -5 170 -9 19 -7 19 -7 2 7 -17 14 -13 15 42 19 34 1 62 -1 64 -5 1 -5 54 -4 117 1 83 7 95 10 42 9 -39 -1 -72 1 -72 4 0 11 135 20 202 15 36 -3 52 -2 38 2 -15 5 -20 11 -13 15 15 9 63 5 57 -5 -3 -4 2 -8 11 -8 9 0 14 4 11 9 -3 4 6 6 20 3 17 -3 24 0 22 9 -2 9 11 15 40 19 23 4 42 3 42 0 0 -4 11 -5 25 -2 14 2 22 8 19 13 -3 5 3 9 13 9 11 0 24 5 29 10 6 6 29 11 50 12 76 1 102 7 100 26 -1 14 7 17 44 15 33 -2 40 0 25 7 -18 7 -16 9 13 16 24 5 30 9 20 15 -9 6 -3 9 18 9 20 0 39 9 54 25 16 17 33 24 49 23 20 -2 27 2 29 20 3 17 8 21 23 17 13 -5 17 -2 14 7 -7 17 39 63 53 54 13 -8 36 20 27 34 -8 13 3 50 15 50 5 0 7 -8 3 -17 -3 -10 -3 -15 1 -12 4 4 8 16 11 28 2 11 7 26 11 33 4 6 3 9 -2 5 -12 -7 -5 145 7 158 5 5 9 20 8 35 0 23 -1 23 -9 5 -8 -20 -9 -20 -9 1 -1 11 1 23 4 26 3 3 7 45 9 94 2 54 0 75 -4 54 -7 -35 -9 -32 -15 25 -2 17 -6 53 -9 80 -4 34 -2 44 4 30 7 -16 9 -10 9 25 1 65 -10 124 -20 109 -4 -8 -10 -11 -12 -9 -9 9 -13 121 -5 126 4 3 7 17 7 32 l-1 27 -8 -30 c-5 -20 -8 -23 -9 -10 -1 11 -3 38 -6 60 -4 32 -3 35 4 15 l9 -25 1 28 c1 15 -3 27 -7 27 -5 0 -7 15 -5 33 3 30 3 30 -7 8 -6 -13 -12 -22 -15 -20 -2 3 -4 52 -4 109 -1 58 -1 136 -1 173 -1 38 3 74 9 80 5 7 11 26 13 42 2 22 9 31 26 33 13 2 22 10 22 20 0 13 2 14 9 4 6 -10 11 -9 22 4 7 9 22 20 34 25 29 12 876 2 889 -11z m-1037 -222 c-2 -13 -4 -3 -4 22 0 25 2 35 4 23 2 -13 2 -33 0 -45z m1610 -80 c-2 -13 -4 -5 -4 17 -1 22 1 32 4 23 2 -10 2 -28 0 -40z m0 -45 c-4 -3 -7 0 -7 7 0 7 3 10 7 7 3 -4 3 -10 0 -14z m0 -110 c-4 -3 -7 0 -7 7 0 7 3 10 7 7 3 -4 3 -10 0 -14z m-1710 -290 c-3 -10 -5 -4 -5 12 0 17 2 24 5 18 2 -7 2 -21 0 -30z m183 -53 c0 -5 -2 -10 -4 -10 -3 0 -8 5 -11 10 -3 6 -1 10 4 10 6 0 11 -4 11 -10z m-136 -585 c-4 -8 -8 -15 -10 -15 -2 0 -4 7 -4 15 0 8 4 15 10 15 5 0 7 -7 4 -15z m-34 -59 c0 -3 -4 -8 -10 -11 -5 -3 -10 -1 -10 4 0 6 5 11 10 11 6 0 10 -2 10 -4z m-30 -26 c0 -5 -5 -10 -11 -10 -5 0 -7 5 -4 10 3 6 8 10 11 10 2 0 4 -4 4 -10z m-3523 -132 c-3 -8 -6 -5 -6 6 -1 11 2 17 5 13 3 -3 4 -12 1 -19z m283 -42 c0 -11 -19 -15 -25 -6 -3 5 1 10 9 10 9 0 16 -2 16 -4z m2497 -43 c-4 -3 -10 -3 -14 0 -3 4 0 7 7 7 7 0 10 -3 7 -7z m-434 -10 c-7 -2 -19 -2 -25 0 -7 3 -2 5 12 5 14 0 19 -2 13 -5z m-1535 -10 c-10 -2 -26 -2 -35 0 -10 3 -2 5 17 5 19 0 27 -2 18 -5z m140 0 c-21 -2 -57 -2 -80 0 -24 2 -7 4 37 4 44 0 63 -2 43 -4z m69 1 c-3 -3 -12 -4 -19 -1 -8 3 -5 6 6 6 11 1 17 -2 13 -5z m236 -1 c-34 -2 -93 -2 -130 0 -37 2 -9 3 62 3 72 0 102 -1 68 -3z m124 0 c-4 -3 -10 -3 -14 0 -3 4 0 7 7 7 7 0 10 -3 7 -7z m436 0 c-40 -2 -107 -2 -150 0 -43 1 -10 3 72 3 83 0 118 -2 78 -3z m125 0 c-10 -2 -26 -2 -35 0 -10 3 -2 5 17 5 19 0 27 -2 18 -5z m75 0 c-7 -2 -21 -2 -30 0 -10 3 -4 5 12 5 17 0 24 -2 18 -5z m1282 -13 c-3 -5 -14 -10 -23 -10 -15 0 -15 2 -2 10 20 13 33 13 25 0z m-2657 -177 c-10 -2 -26 -2 -35 0 -10 3 -2 5 17 5 19 0 27 -2 18 -5z m-1511 -220 c-4 -3 -7 0 -7 7 0 7 3 10 7 7 3 -4 3 -10 0 -14z m3 -77 c0 -3 -5 -8 -12 -12 -7 -4 -8 -3 -4 4 7 12 16 16 16 8z m-13 -53 c-4 -3 -7 0 -7 7 0 7 3 10 7 7 3 -4 3 -10 0 -14z m180 -65 c-2 -13 -4 -3 -4 22 0 25 2 35 4 23 2 -13 2 -33 0 -45z m-170 25 c-4 -3 -7 0 -7 7 0 7 3 10 7 7 3 -4 3 -10 0 -14z m5963 -149 c0 -8 -5 -12 -10 -9 -6 4 -8 11 -5 16 9 14 15 11 15 -7z m-260 -38 c0 -2 -8 -10 -17 -17 -16 -13 -17 -12 -4 4 13 16 21 21 21 13z m-5713 -23 c-4 -3 -7 0 -7 7 0 7 3 10 7 7 3 -4 3 -10 0 -14z m8 -123 c3 -5 1 -10 -4 -10 -6 0 -11 5 -11 10 0 6 2 10 4 10 3 0 8 -4 11 -10z m1352 -26 c-3 -3 -12 -4 -19 -1 -8 3 -5 6 6 6 11 1 17 -2 13 -5z m-1353 -63 c2 -28 -1 -51 -6 -51 -4 0 -8 26 -8 57 0 69 11 64 14 -6z m203 -83 c-3 -8 -6 -5 -6 6 -1 11 2 17 5 13 3 -3 4 -12 1 -19z m4650 -65 c-4 -3 -10 -3 -14 0 -3 4 0 7 7 7 7 0 10 -3 7 -7z m653 -103 c0 -5 -5 -10 -11 -10 -5 0 -7 5 -4 10 3 6 8 10 11 10 2 0 4 -4 4 -10z m-5135 -78 c-3 -3 -11 0 -18 7 -9 10 -8 11 6 5 10 -3 15 -9 12 -12z m228 -39 c-7 -2 -21 -2 -30 0 -10 3 -4 5 12 5 17 0 24 -2 18 -5z"/>
<path d="M6548 6183 c7 -3 16 -2 19 1 4 3 -2 6 -13 5 -11 0 -14 -3 -6 -6z"/>
<path d="M7328 6183 c12 -2 32 -2 45 0 12 2 2 4 -23 4 -25 0 -35 -2 -22 -4z"/>
<path d="M7423 6183 c4 -3 10 -3 14 0 3 4 0 7 -7 7 -7 0 -10 -3 -7 -7z"/>
<path d="M2223 5313 c9 -2 25 -2 35 0 9 3 1 5 -18 5 -19 0 -27 -2 -17 -5z"/>
<path d="M2153 5283 c4 -3 10 -3 14 0 3 4 0 7 -7 7 -7 0 -10 -3 -7 -7z"/>
<path d="M6502 5245 c0 -16 2 -22 5 -12 2 9 2 23 0 30 -3 6 -5 -1 -5 -18z"/>
<path d="M2043 4920 c0 -41 2 -58 4 -37 2 20 2 54 0 75 -2 20 -4 3 -4 -38z"/>
<path d="M2585 4860 c3 -5 8 -10 11 -10 3 0 2 5 -1 10 -3 6 -8 10 -11 10 -3 0 -2 -4 1 -10z"/>
<path d="M2052 4573 c1 -101 5 -89 10 30 2 37 0 67 -4 67 -5 0 -7 -44 -6 -97z"/>
<path d="M6410 4650 c-9 -6 -10 -10 -3 -10 6 0 15 5 18 10 8 12 4 12 -15 0z"/>
<path d="M6270 4550 c0 -5 7 -7 15 -4 8 4 15 8 15 10 0 2 -7 4 -15 4 -8 0 -15 -4 -15 -10z"/>
<path d="M2056 4380 c3 -52 6 -96 8 -98 7 -7 4 114 -4 153 -5 28 -7 11 -4 -55z"/>
<path d="M5283 4323 c9 -2 23 -2 30 0 6 3 -1 5 -18 5 -16 0 -22 -2 -12 -5z"/>
<path d="M4988 4303 c12 -2 32 -2 45 0 12 2 2 4 -23 4 -25 0 -35 -2 -22 -4z"/>
<path d="M4208 4283 c28 -2 76 -2 105 0 28 2 5 3 -53 3 -58 0 -81 -1 -52 -3z"/>
<path d="M4388 4283 c12 -2 32 -2 45 0 12 2 2 4 -23 4 -25 0 -35 -2 -22 -4z"/>
<path d="M2060 4260 c0 -7 3 -10 7 -7 3 4 3 10 0 14 -4 3 -7 0 -7 -7z"/>
<path d="M2063 4180 c0 -36 2 -50 4 -32 2 17 2 47 0 65 -2 17 -4 3 -4 -33z"/>
<path d="M7633 3940 c0 -25 2 -35 4 -22 2 12 2 32 0 45 -2 12 -4 2 -4 -23z"/>
<path d="M4283 3723 c4 -3 10 -3 14 0 3 4 0 7 -7 7 -7 0 -10 -3 -7 -7z"/>
<path d="M3633 3683 c4 -3 10 -3 14 0 3 4 0 7 -7 7 -7 0 -10 -3 -7 -7z"/>
<path d="M4838 3633 c7 -3 16 -2 19 1 4 3 -2 6 -13 5 -11 0 -14 -3 -6 -6z"/>
<path d="M5060 3596 c0 -2 13 -6 29 -8 17 -2 28 -1 25 4 -5 8 -54 12 -54 4z"/>
<path d="M5878 3423 c7 -3 16 -2 19 1 4 3 -2 6 -13 5 -11 0 -14 -3 -6 -6z"/>
<path d="M5978 3403 c7 -3 16 -2 19 1 4 3 -2 6 -13 5 -11 0 -14 -3 -6 -6z"/>
<path d="M6070 3390 c0 -7 3 -10 7 -7 3 4 3 10 0 14 -4 3 -7 0 -7 -7z"/>
<path d="M6093 3383 c4 -3 10 -3 14 0 3 4 0 7 -7 7 -7 0 -10 -3 -7 -7z"/>
<path d="M2913 3363 c4 -3 10 -3 14 0 3 4 0 7 -7 7 -7 0 -10 -3 -7 -7z"/>
<path d="M2199 3223 c11 -22 30 -38 35 -32 2 2 -8 15 -21 29 -23 23 -24 23 -14 3z"/>
<path d="M6463 6343 c9 -2 23 -2 30 0 6 3 -1 5 -18 5 -16 0 -22 -2 -12 -5z"/>
<path d="M7012 6343 c48 -2 129 -2 180 0 51 1 12 3 -87 3 -99 0 -141 -2 -93 -3z"/>
<path d="M7843 6343 c4 -3 10 -3 14 0 3 4 0 7 -7 7 -7 0 -10 -3 -7 -7z"/>
<path d="M6143 6195 c0 -33 2 -45 4 -27 2 18 2 45 0 60 -2 15 -4 0 -4 -33z"/>
<path d="M2229 6188 c-1 -25 -3 -28 -7 -13 -8 23 -39 27 -51 6 -7 -11 -10 -10 -14 5 -3 12 -5 7 -6 -13 0 -17 5 -34 12 -36 10 -4 10 -6 0 -6 -8 -1 -13 -16 -13 -39 0 -21 6 -44 13 -51 10 -11 10 -13 0 -7 -10 5 -13 -5 -12 -41 0 -35 3 -43 9 -28 6 16 8 14 7 -13 0 -22 -3 -29 -8 -20 -5 7 -8 -26 -7 -77 l2 -90 5 75 6 75 7 -65 c3 -35 2 -72 -3 -81 -12 -23 13 -93 36 -97 9 -2 22 2 29 9 8 9 8 10 -1 5 -17 -9 -18 4 -13 111 l5 98 5 -100 c6 -88 6 -79 7 68 1 145 0 168 -13 163 -10 -4 -13 -2 -7 7 10 16 12 29 19 115 3 39 3 72 0 72 -3 0 -6 -15 -7 -32z m-12 -265 c-4 -3 -7 0 -7 7 0 7 3 10 7 7 3 -4 3 -10 0 -14z"/>
<path d="M8032 6000 c0 -14 2 -19 5 -12 2 6 2 18 0 25 -3 6 -5 1 -5 -13z"/>
<path d="M6180 5960 c0 -7 3 -10 7 -7 3 4 3 10 0 14 -4 3 -7 0 -7 -7z"/>
<path d="M2313 5503 c4 -3 10 -3 14 0 3 4 0 7 -7 7 -7 0 -10 -3 -7 -7z"/>
<path d="M2393 5493 c9 -2 23 -2 30 0 6 3 -1 5 -18 5 -16 0 -22 -2 -12 -5z"/>
<path d="M2490 5420 c0 -7 3 -10 7 -7 3 4 3 10 0 14 -4 3 -7 0 -7 -7z"/>
<path d="M8279 5301 l24 -6 -26 -12 c-29 -13 -37 -42 -25 -90 5 -17 7 -588 6 -1268 -2 -680 0 -1226 4 -1213 6 18 7 15 5 -12 l-2 -35 62 -2 c39 -1 61 3 57 9 -3 5 2 8 12 6 18 -3 19 38 22 1290 1 942 -1 1292 -9 1292 -6 0 -9 7 -5 15 3 8 1 15 -4 15 -6 0 -10 -4 -10 -9 0 -6 -14 -5 -32 2 l-33 11 30 7 c21 5 10 7 -35 7 -39 0 -55 -3 -41 -7z"/>
<path d="M2583 5213 c4 -3 10 -3 14 0 3 4 0 7 -7 7 -7 0 -10 -3 -7 -7z"/>
<path d="M2700 4941 c0 -6 4 -13 10 -16 6 -3 7 1 4 9 -7 18 -14 21 -14 7z"/>
<path d="M1900 4910 c0 -7 3 -10 7 -7 3 4 3 10 0 14 -4 3 -7 0 -7 -7z"/>
<path d="M7992 4855 c0 -16 2 -22 5 -12 2 9 2 23 0 30 -3 6 -5 -1 -5 -18z"/>
<path d="M7970 4510 c0 -7 3 -10 7 -7 3 4 3 10 0 14 -4 3 -7 0 -7 -7z"/>
<path d="M7952 4285 c0 -16 2 -22 5 -12 2 9 2 23 0 30 -3 6 -5 -1 -5 -18z"/>
<path d="M1873 4195 c0 -27 2 -38 4 -22 2 15 2 37 0 50 -2 12 -4 0 -4 -28z"/>
<path d="M3828 3513 c7 -3 16 -2 19 1 4 3 -2 6 -13 5 -11 0 -14 -3 -6 -6z"/>
<path d="M4328 3513 c7 -3 16 -2 19 1 4 3 -2 6 -13 5 -11 0 -14 -3 -6 -6z"/>
<path d="M4558 3493 c6 -2 18 -2 25 0 6 3 1 5 -13 5 -14 0 -19 -2 -12 -5z"/>
<path d="M4703 3473 c4 -3 10 -3 14 0 3 4 0 7 -7 7 -7 0 -10 -3 -7 -7z"/>
<path d="M7635 3359 c-4 -6 -5 -12 -2 -15 2 -3 7 2 10 11 7 17 1 20 -8 4z"/>
<path d="M1870 3320 c0 -7 3 -10 7 -7 3 4 3 10 0 14 -4 3 -7 0 -7 -7z"/>
<path d="M2956 3185 c-11 -8 -17 -17 -14 -20 2 -3 13 4 23 15 21 23 18 25 -9 5z"/>
<path d="M6308 3193 c7 -3 16 -2 19 1 4 3 -2 6 -13 5 -11 0 -14 -3 -6 -6z"/>
<path d="M2338 2853 c12 -2 30 -2 40 0 9 3 -1 5 -23 4 -22 0 -30 -2 -17 -4z"/>
<path d="M2408 2853 c6 -2 18 -2 25 0 6 3 1 5 -13 5 -14 0 -19 -2 -12 -5z"/>
</g>


</svg>